<svg width="600" height="600" viewBox="0 0 600 600" fill="none" xmlns="http://www.w3.org/2000/svg">
<path d="M57.6924 160.104L300 20.2073L542.308 160.104V439.896L300 579.793L57.6924 439.896V160.104Z" stroke="#daf7a6" stroke-width="35"/>
<path d="M302 389.75C289.167 389.75 277.667 387.667 267.5 383.5C257.333 379.333 249.167 373.167 243 365C237 356.833 233.833 347 233.5 335.5H279C279.667 342 281.917 347 285.75 350.5C289.583 353.833 294.583 355.5 300.75 355.5C307.083 355.5 312.083 354.083 315.75 351.25C319.417 348.25 321.25 344.167 321.25 339C321.25 334.667 319.75 331.083 316.75 328.25C313.917 325.417 310.333 323.083 306 321.25C301.833 319.417 295.833 317.333 288 315C276.667 311.5 267.417 308 260.25 304.5C253.083 301 246.917 295.833 241.75 289C236.583 282.167 234 273.25 234 262.25C234 245.917 239.917 233.167 251.75 224C263.583 214.667 279 210 298 210C317.333 210 332.917 214.667 344.75 224C356.583 233.167 362.917 246 363.75 262.5H317.5C317.167 256.833 315.083 252.417 311.25 249.25C307.417 245.917 302.5 244.25 296.5 244.25C291.333 244.25 287.167 245.667 284 248.5C280.833 251.167 279.25 255.083 279.25 260.25C279.25 265.917 281.917 270.333 287.25 273.5C292.583 276.667 300.917 280.083 312.25 283.75C323.583 287.583 332.75 291.25 339.75 294.75C346.917 298.25 353.083 303.333 358.25 310C363.417 316.667 366 325.25 366 335.75C366 345.75 363.417 354.833 358.25 363C353.25 371.167 345.917 377.667 336.25 382.5C326.583 387.333 315.167 389.75 302 389.75Z" fill="#daf7a6"/>
</svg>
